<svg width="1877" height="380" viewBox="0 0 1877 380" fill="none" xmlns="http://www.w3.org/2000/svg">
<path d="M611.179 138.567C594.798 138.567 582.246 143.574 573.524 153.588C564.801 163.601 560.44 177.77 560.44 196.093C560.44 214.629 565.227 228.904 574.8 238.918C584.586 248.931 597.67 253.938 614.051 253.938C622.773 253.938 630.113 252.766 636.07 250.423C642.239 248.079 648.089 245.416 653.621 242.433C657.237 245.416 660.003 249.038 661.918 253.299C664.045 257.347 665.109 262.141 665.109 267.68C665.109 276.416 660.216 283.873 650.43 290.052C640.856 296.017 626.177 299 606.392 299C592.139 299 578.736 296.976 566.184 292.928C553.632 288.88 542.676 282.701 533.316 274.392C523.955 265.869 516.509 255.216 510.978 242.433C505.659 229.436 503 213.99 503 196.093C503 179.474 505.553 164.88 510.659 152.309C515.977 139.526 523.104 128.766 532.039 120.031C541.187 111.296 551.824 104.691 563.95 100.216C576.077 95.7423 589.054 93.5052 602.882 93.5052C622.454 93.5052 637.559 96.701 648.196 103.093C659.046 109.485 664.47 117.687 664.47 127.701C664.47 133.241 663.088 138.034 660.322 142.082C657.556 146.131 654.365 149.326 650.749 151.67C645.217 148.048 639.261 144.959 632.878 142.402C626.709 139.845 619.476 138.567 611.179 138.567Z" fill="white"/>
<path d="M847.192 215.588C847.192 228.797 845.171 240.622 841.129 251.062C837.087 261.289 831.343 269.918 823.897 276.948C816.664 283.979 807.941 289.306 797.73 292.928C787.518 296.55 776.136 298.361 763.585 298.361C751.033 298.361 739.651 296.443 729.44 292.608C719.228 288.773 710.399 283.34 702.953 276.309C695.72 269.065 690.083 260.33 686.04 250.103C681.998 239.876 679.977 228.371 679.977 215.588C679.977 203.017 681.998 191.619 686.04 181.392C690.083 171.165 695.72 162.536 702.953 155.505C710.399 148.261 719.228 142.722 729.44 138.887C739.651 135.052 751.033 133.134 763.585 133.134C776.136 133.134 787.518 135.158 797.73 139.206C807.941 143.041 816.664 148.581 823.897 155.825C831.343 162.856 837.087 171.485 841.129 181.711C845.171 191.938 847.192 203.23 847.192 215.588ZM735.503 215.588C735.503 228.584 737.949 238.598 742.842 245.629C747.948 252.447 754.969 255.856 763.904 255.856C772.839 255.856 779.647 252.34 784.327 245.309C789.22 238.278 791.666 228.371 791.666 215.588C791.666 202.804 789.22 193.003 784.327 186.186C779.434 179.155 772.52 175.639 763.585 175.639C754.649 175.639 747.735 179.155 742.842 186.186C737.949 193.003 735.503 202.804 735.503 215.588Z" fill="white"/>
<path d="M928.864 292.928C926.524 293.354 923.014 293.887 918.334 294.526C913.866 295.378 909.292 295.804 904.612 295.804C899.932 295.804 895.677 295.485 891.848 294.845C888.231 294.206 885.146 292.928 882.593 291.01C880.04 289.093 878.019 286.536 876.53 283.34C875.254 279.931 874.615 275.564 874.615 270.237V84.8763C876.956 84.4502 880.359 83.9175 884.827 83.2784C889.507 82.4261 894.188 82 898.868 82C903.548 82 907.697 82.3196 911.313 82.9587C915.143 83.5979 918.334 84.8763 920.887 86.7938C923.44 88.7113 925.354 91.3746 926.631 94.7835C928.12 97.9794 928.864 102.241 928.864 107.567V292.928Z" fill="white"/>
<path d="M1018.3 292.928C1015.96 293.354 1012.45 293.887 1007.77 294.526C1003.3 295.378 998.731 295.804 994.051 295.804C989.37 295.804 985.115 295.485 981.286 294.845C977.669 294.206 974.585 292.928 972.032 291.01C969.479 289.093 967.458 286.536 965.969 283.34C964.692 279.931 964.054 275.564 964.054 270.237V84.8763C966.394 84.4502 969.798 83.9175 974.266 83.2784C978.946 82.4261 983.626 82 988.306 82C992.987 82 997.135 82.3196 1000.75 82.9587C1004.58 83.5979 1007.77 84.8763 1010.33 86.7938C1012.88 88.7113 1014.79 91.3746 1016.07 94.7835C1017.56 97.9794 1018.3 102.241 1018.3 107.567V292.928Z" fill="white"/>
<path d="M1118.91 258.732C1122.53 258.732 1126.46 258.412 1130.72 257.773C1135.19 256.921 1138.48 255.856 1140.61 254.577V229.01L1117.63 230.928C1111.68 231.354 1106.78 232.632 1102.95 234.763C1099.13 236.893 1097.21 240.089 1097.21 244.35C1097.21 248.612 1098.81 252.127 1102 254.897C1105.4 257.454 1111.04 258.732 1118.91 258.732ZM1116.36 133.134C1127.85 133.134 1138.27 134.306 1147.63 136.649C1157.2 138.993 1165.29 142.615 1171.88 147.515C1178.69 152.203 1183.9 158.275 1187.52 165.732C1191.14 172.976 1192.94 181.605 1192.94 191.619V263.206C1192.94 268.746 1191.35 273.326 1188.16 276.948C1185.18 280.357 1181.56 283.34 1177.31 285.897C1163.48 294.206 1144.01 298.361 1118.91 298.361C1107.64 298.361 1097.42 297.296 1088.28 295.165C1079.34 293.034 1071.58 289.838 1064.98 285.577C1058.6 281.316 1053.6 275.883 1049.98 269.278C1046.58 262.674 1044.88 255.003 1044.88 246.268C1044.88 231.567 1049.24 220.275 1057.96 212.392C1066.68 204.509 1080.19 199.608 1098.49 197.691L1140.29 193.216V190.979C1140.29 184.801 1137.53 180.433 1131.99 177.876C1126.68 175.107 1118.91 173.722 1108.7 173.722C1100.61 173.722 1092.74 174.574 1085.08 176.278C1077.43 177.983 1070.51 180.113 1064.34 182.67C1061.58 180.753 1059.24 177.876 1057.32 174.041C1055.41 169.993 1054.45 165.838 1054.45 161.577C1054.45 156.038 1055.73 151.67 1058.28 148.474C1061.04 145.065 1065.19 142.189 1070.72 139.845C1076.89 137.502 1084.13 135.797 1092.42 134.732C1100.93 133.667 1108.91 133.134 1116.36 133.134Z" fill="white"/>
<path d="M1226.75 85.1959C1228.88 84.5567 1232.28 83.9175 1236.96 83.2784C1241.64 82.4261 1246.43 82 1251.32 82C1256 82 1260.15 82.3196 1263.77 82.9587C1267.6 83.5979 1270.79 84.8763 1273.34 86.7938C1275.9 88.7113 1277.81 91.3746 1279.09 94.7835C1280.36 97.9794 1281 102.241 1281 107.567V138.887C1286.32 136.756 1291.32 135.265 1296 134.412C1300.89 133.56 1306.21 133.134 1311.96 133.134C1322.17 133.134 1331.85 134.945 1340.99 138.567C1350.14 142.189 1358.23 147.515 1365.25 154.546C1372.27 161.364 1377.8 169.887 1381.84 180.113C1385.88 190.34 1387.9 202.165 1387.9 215.588C1387.9 229.436 1385.78 241.581 1381.52 252.021C1377.48 262.247 1371.74 270.77 1364.29 277.588C1356.84 284.406 1347.7 289.625 1336.85 293.247C1326.21 296.656 1314.4 298.361 1301.42 298.361C1287.38 298.361 1275.47 296.656 1265.68 293.247C1255.9 290.052 1247.6 286.003 1240.79 281.103C1231.43 274.498 1226.75 265.976 1226.75 255.536V85.1959ZM1301.42 255.536C1311.21 255.536 1318.76 252.234 1324.08 245.629C1329.61 238.811 1332.38 228.797 1332.38 215.588C1332.38 202.165 1329.61 192.151 1324.08 185.546C1318.55 178.942 1311.1 175.639 1301.74 175.639C1297.49 175.639 1293.77 176.065 1290.58 176.918C1287.6 177.77 1284.3 179.048 1280.68 180.753V250.423C1283.02 251.914 1285.79 253.192 1288.98 254.258C1292.38 255.11 1296.53 255.536 1301.42 255.536Z" fill="white"/>
<path d="M1574.85 215.588C1574.85 228.797 1572.83 240.622 1568.79 251.062C1564.75 261.289 1559 269.918 1551.56 276.948C1544.33 283.979 1535.6 289.306 1525.39 292.928C1515.18 296.55 1503.8 298.361 1491.25 298.361C1478.69 298.361 1467.31 296.443 1457.1 292.608C1446.89 288.773 1438.06 283.34 1430.62 276.309C1423.38 269.065 1417.74 260.33 1413.7 250.103C1409.66 239.876 1407.64 228.371 1407.64 215.588C1407.64 203.017 1409.66 191.619 1413.7 181.392C1417.74 171.165 1423.38 162.536 1430.62 155.505C1438.06 148.261 1446.89 142.722 1457.1 138.887C1467.31 135.052 1478.69 133.134 1491.25 133.134C1503.8 133.134 1515.18 135.158 1525.39 139.206C1535.6 143.041 1544.33 148.581 1551.56 155.825C1559 162.856 1564.75 171.485 1568.79 181.711C1572.83 191.938 1574.85 203.23 1574.85 215.588ZM1463.16 215.588C1463.16 228.584 1465.61 238.598 1470.5 245.629C1475.61 252.447 1482.63 255.856 1491.57 255.856C1500.5 255.856 1507.31 252.34 1511.99 245.309C1516.88 238.278 1519.33 228.371 1519.33 215.588C1519.33 202.804 1516.88 193.003 1511.99 186.186C1507.1 179.155 1500.18 175.639 1491.25 175.639C1482.31 175.639 1475.4 179.155 1470.5 186.186C1465.61 193.003 1463.16 202.804 1463.16 215.588Z" fill="white"/>
<path d="M1668.32 258.732C1671.94 258.732 1675.87 258.412 1680.13 257.773C1684.59 256.921 1687.89 255.856 1690.02 254.577V229.01L1667.04 230.928C1661.09 231.354 1656.19 232.632 1652.36 234.763C1648.53 236.893 1646.62 240.089 1646.62 244.35C1646.62 248.612 1648.21 252.127 1651.41 254.897C1654.81 257.454 1660.45 258.732 1668.32 258.732ZM1665.77 133.134C1677.25 133.134 1687.68 134.306 1697.04 136.649C1706.61 138.993 1714.7 142.615 1721.29 147.515C1728.1 152.203 1733.31 158.275 1736.93 165.732C1740.54 172.976 1742.35 181.605 1742.35 191.619V263.206C1742.35 268.746 1740.76 273.326 1737.57 276.948C1734.59 280.357 1730.97 283.34 1726.72 285.897C1712.89 294.206 1693.42 298.361 1668.32 298.361C1657.04 298.361 1646.83 297.296 1637.68 295.165C1628.75 293.034 1620.98 289.838 1614.39 285.577C1608.01 281.316 1603.01 275.883 1599.39 269.278C1595.99 262.674 1594.28 255.003 1594.28 246.268C1594.28 231.567 1598.65 220.275 1607.37 212.392C1616.09 204.509 1629.6 199.608 1647.9 197.691L1689.7 193.216V190.979C1689.7 184.801 1686.93 180.433 1681.4 177.876C1676.08 175.107 1668.32 173.722 1658.11 173.722C1650.02 173.722 1642.15 174.574 1634.49 176.278C1626.83 177.983 1619.92 180.113 1613.75 182.67C1610.98 180.753 1608.64 177.876 1606.73 174.041C1604.82 169.993 1603.86 165.838 1603.86 161.577C1603.86 156.038 1605.13 151.67 1607.69 148.474C1610.45 145.065 1614.6 142.189 1620.13 139.845C1626.3 137.502 1633.54 135.797 1641.83 134.732C1650.34 133.667 1658.32 133.134 1665.77 133.134Z" fill="white"/>
<path d="M1829.77 239.876C1829.77 245.416 1831.47 249.357 1834.88 251.701C1838.49 254.045 1843.49 255.216 1849.88 255.216C1853.07 255.216 1856.36 255.003 1859.77 254.577C1863.17 253.938 1866.15 253.192 1868.7 252.34C1870.62 254.684 1872.21 257.347 1873.49 260.33C1874.98 263.1 1875.72 266.509 1875.72 270.557C1875.72 278.653 1872.64 285.258 1866.47 290.371C1860.51 295.485 1849.88 298.041 1834.56 298.041C1815.84 298.041 1801.37 293.78 1791.16 285.258C1781.16 276.735 1776.16 262.887 1776.16 243.711V106.928C1778.5 106.289 1781.8 105.649 1786.05 105.01C1790.52 104.158 1795.2 103.732 1800.09 103.732C1809.45 103.732 1816.69 105.436 1821.79 108.845C1827.11 112.041 1829.77 118.966 1829.77 129.619V150.072H1871.58C1872.85 152.416 1874.02 155.399 1875.09 159.021C1876.36 162.43 1877 166.265 1877 170.526C1877 177.983 1875.3 183.416 1871.89 186.825C1868.7 190.021 1864.34 191.619 1858.81 191.619H1829.77V239.876Z" fill="white"/>
<path d="M380 240L20 239.82C14.7 239.82 9.6 241.92 5.86 245.68C2.12 249.44 0 254.52 0 259.82C0 300.78 11.28 332.32 33.56 353.58C62.58 381.28 99.34 379.84 99.98 379.82L299.98 380C299.98 380 299.98 380 300 380C360.14 380 400 294.6 400 260C400 248.96 391.06 240 380 240Z" fill="white"/>
<path d="M379.14 165.12C344.32 50.54 249.58 21.94 245.56 20.78C243.72 20.26 241.86 20 240 20C235.2 20 230.48 21.74 226.78 24.98C221.66 29.5 219.18 36.32 220.24 43.06C220.3 43.5 226.68 84.94 226.68 120C226.68 120.22 226.68 120.46 226.68 120.68C184.78 19.38 88.06 1.12 83.46 0.300002C82.32 0.100002 81.16 0 80 0C73.9 0 68.06 2.8 64.22 7.7C59.68 13.54 58.72 21.4 61.74 28.16C62.16 29.1 80 70.32 80 124.44C80 149.3 67.04 181.02 62.06 191.16C58.64 198.1 59.54 206.4 64.36 212.46C68.2 217.28 74 220 80 220C81.52 220 83.08 219.82 84.6 219.46L221.58 187.1C220.8 193.16 220.24 196.88 220.22 197.02C219.22 203.6 221.58 210.26 226.48 214.76C230.22 218.16 235.06 220 240 220C241.56 220 243.14 219.82 244.7 219.44L364.7 190.38C370.04 189.08 374.62 185.64 377.36 180.86C380.1 176.08 380.74 170.4 379.14 165.12Z" fill="#2D3142"/>
</svg>
